<?xml version="1.0" encoding="utf-8" ?><svg xmlns="http://www.w3.org/2000/svg" xmlns:xlink="http://www.w3.org/1999/xlink" width="343" height="235" viewBox="0 0 343 235"><clipPath id="cl_3"><rect width="343" height="235"/></clipPath><g clip-path="url(#cl_3)"><path fill="#FE872C" transform="translate(-111 -365)" d="M281.7 374.113C301.068 373.088 314.817 378.297 328.845 391.934C356.485 418.628 366.59 459.734 379.042 494.544C388.847 521.954 399.686 549.088 429.915 557.908C435.146 559.434 445.73 560.798 448.019 564.94C456.138 579.636 440.835 587.03 427.984 583.551C389.676 575.738 370.551 544.383 358.44 510.054C348.226 481.099 339.086 448.756 321.686 423.15C314.875 413.127 305.26 403.141 292.928 401.053C288.049 400.158 283.026 400.453 278.285 401.913C243.752 412.24 226.717 483.146 215.311 514.111C212.529 521.805 209.187 529.284 205.31 536.488C191.793 561.441 171.353 580.032 142.308 584.189C135.298 585.193 126.217 582.921 124.296 575.108C123.525 571.851 124.137 568.42 125.987 565.63C129.696 560.098 136.262 559.939 141.959 559.095C145.302 558.6 151.509 555.716 154.6 554.183C180.198 541.765 188.912 514.993 197.484 490.119C212.259 447.248 229.407 382.93 281.7 374.113Z"/><path fill="#121315" transform="translate(-111 -365)" d="M458.66 433.137C463.429 432.967 475.395 431.795 478.829 434.559C481.031 439.376 479.799 479.793 480.164 488.726C487.77 480.721 518.645 435.335 525.318 433.556C528.994 432.575 542.354 431.899 545.441 434.097C546.553 434.888 547.01 435.905 547.137 437.238C547.314 439.099 546.392 440.871 545.415 442.371C541.544 448.316 536.285 453.748 531.723 459.192C522.077 470.556 512.563 482.03 503.181 493.612C510.097 503.751 518.661 513.509 525.917 523.436C528.137 526.474 530.888 530.035 533.386 532.835C536.955 537.489 547.81 549.651 548.301 554.274C547.368 557.012 545.494 557.841 542.671 557.985C536.528 558.299 529.925 558.011 523.79 557.838C517.089 553.691 488.719 511.012 480.058 501.646C479.712 519.551 480.743 538.032 479.536 555.756C479.281 559.502 459.104 558.361 456.525 556.192C454.756 549.833 455.543 530.925 455.54 523.547L455.516 472.845C455.515 461.738 455.235 447.78 455.907 436.506C456.01 434.779 457.311 433.926 458.66 433.137Z"/></g></svg>
